{
	"asset":{
		"generator":"Khronos glTF Blender I/O v3.6.27",
		"version":"2.0"
	},
	"scene":0,
	"scenes":[
		{
			"extras":{
				"_RNA_UI":{
					"SRID":{
						"description":"Map Coordinate Reference System",
						"default":""
					},
					"crs x":{
						"description":"Scene x origin in CRS space",
						"default":0.0
					},
					"crs y":{
						"description":"Scene y origin in CRS space",
						"default":0.0
					},
					"longitude":{
						"description":"Scene origin longitude",
						"default":0.0,
						"min":-180.0,
						"max":180.0
					},
					"latitude":{
						"description":"Scene origin latitude",
						"default":0.0,
						"min":-90.0,
						"max":90.0
					}
				},
				"SRID":"EPSG:25832",
				"crs x":355043.3351730326,
				"crs y":5643739.666081983,
				"longitude":6.937336724035933,
				"latitude":50.9270588184624
			},
			"name":"Scene",
			"nodes":[
				0,
				1,
				2,
				3,
				4,
				5,
				6,
				7,
				8,
				9,
				10,
				11,
				12,
				13,
				14,
				15,
				16,
				17,
				18,
				19,
				20,
				21
			]
		}
	],
	"nodes":[
		{
			"mesh":0,
			"name":"303__3__outline",
			"translation":[
				-0.9680137634277344,
				9.600000381469727,
				0.35964417457580566
			]
		},
		{
			"extras":{
				"id":131.0
			},
			"mesh":1,
			"name":"131",
			"translation":[
				20.027233123779297,
				9.600000381469727,
				18.048782348632812
			]
		},
		{
			"extras":{
				"id":132.0
			},
			"mesh":2,
			"name":"132",
			"translation":[
				11.954058647155762,
				9.600000381469727,
				17.52189064025879
			]
		},
		{
			"extras":{
				"id":129.0
			},
			"mesh":3,
			"name":"129",
			"translation":[
				-4.891043186187744,
				9.600000381469727,
				-2.622992992401123
			]
		},
		{
			"extras":{
				"id":130.0
			},
			"mesh":4,
			"name":"130",
			"translation":[
				6.83413028717041,
				9.600000381469727,
				13.27442741394043
			]
		},
		{
			"extras":{
				"id":114.0
			},
			"mesh":5,
			"name":"114",
			"translation":[
				12.320822715759277,
				9.600000381469727,
				11.409263610839844
			]
		},
		{
			"extras":{
				"id":115.0
			},
			"mesh":6,
			"name":"115",
			"translation":[
				15.132877349853516,
				9.600000381469727,
				10.85627555847168
			]
		},
		{
			"extras":{
				"id":112.0
			},
			"mesh":7,
			"name":"112",
			"translation":[
				12.57925033569336,
				9.600000381469727,
				6.031426429748535
			]
		},
		{
			"extras":{
				"id":133.0
			},
			"mesh":8,
			"name":"133",
			"translation":[
				13.743348121643066,
				9.600000381469727,
				9.703548431396484
			]
		},
		{
			"extras":{
				"id":113.0
			},
			"mesh":9,
			"name":"113",
			"translation":[
				10.53589153289795,
				9.600000381469727,
				12.360381126403809
			]
		},
		{
			"extras":{
				"id":123.0
			},
			"mesh":10,
			"name":"123",
			"translation":[
				17.752870559692383,
				9.600000381469727,
				9.21961784362793
			]
		},
		{
			"extras":{
				"id":118.0
			},
			"mesh":11,
			"name":"118",
			"translation":[
				14.751901626586914,
				9.600000381469727,
				8.494216918945312
			]
		},
		{
			"extras":{
				"id":124.0
			},
			"mesh":12,
			"name":"124",
			"translation":[
				15.776391983032227,
				9.600000381469727,
				14.275936126708984
			]
		},
		{
			"extras":{
				"id":119.0
			},
			"mesh":13,
			"name":"119",
			"translation":[
				9.756758689880371,
				9.600000381469727,
				7.738738059997559
			]
		},
		{
			"extras":{
				"id":121.0
			},
			"mesh":14,
			"name":"121",
			"translation":[
				8.773462295532227,
				9.600000381469727,
				5.389317512512207
			]
		},
		{
			"extras":{
				"id":116.0
			},
			"mesh":15,
			"name":"116",
			"translation":[
				16.833755493164062,
				9.600000381469727,
				12.267290115356445
			]
		},
		{
			"extras":{
				"id":122.0
			},
			"mesh":16,
			"name":"122",
			"translation":[
				17.90233039855957,
				9.600000381469727,
				13.153757095336914
			]
		},
		{
			"extras":{
				"id":117.0
			},
			"mesh":17,
			"name":"117",
			"translation":[
				13.71035385131836,
				9.600000381469727,
				12.561990737915039
			]
		},
		{
			"extras":{
				"id":127.0
			},
			"mesh":18,
			"name":"127",
			"translation":[
				-17.743633270263672,
				9.600000381469727,
				-13.412912368774414
			]
		},
		{
			"extras":{
				"id":128.0
			},
			"mesh":19,
			"name":"128",
			"translation":[
				-20.746021270751953,
				9.600000381469727,
				-9.414352416992188
			]
		},
		{
			"extras":{
				"id":125.0
			},
			"mesh":20,
			"name":"125",
			"translation":[
				8.313028335571289,
				9.600000381469727,
				8.077984809875488
			]
		},
		{
			"extras":{
				"id":126.0
			},
			"mesh":21,
			"name":"126",
			"translation":[
				-14.474105834960938,
				9.600000381469727,
				-16.934755325317383
			]
		}
	],
	"meshes":[
		{
			"name":"303__0__outline.015",
			"primitives":[
				{
					"attributes":{
						"POSITION":0,
						"NORMAL":1
					},
					"indices":2
				}
			]
		},
		{
			"name":"131",
			"primitives":[
				{
					"attributes":{
						"POSITION":3,
						"NORMAL":4
					},
					"indices":5
				}
			]
		},
		{
			"name":"132",
			"primitives":[
				{
					"attributes":{
						"POSITION":6,
						"NORMAL":7
					},
					"indices":8
				}
			]
		},
		{
			"name":"129",
			"primitives":[
				{
					"attributes":{
						"POSITION":9,
						"NORMAL":10
					},
					"indices":5
				}
			]
		},
		{
			"name":"130",
			"primitives":[
				{
					"attributes":{
						"POSITION":11,
						"NORMAL":12
					},
					"indices":5
				}
			]
		},
		{
			"name":"114",
			"primitives":[
				{
					"attributes":{
						"POSITION":13,
						"NORMAL":14
					},
					"indices":5
				}
			]
		},
		{
			"name":"115",
			"primitives":[
				{
					"attributes":{
						"POSITION":15,
						"NORMAL":16
					},
					"indices":17
				}
			]
		},
		{
			"name":"112",
			"primitives":[
				{
					"attributes":{
						"POSITION":18,
						"NORMAL":19
					},
					"indices":20
				}
			]
		},
		{
			"name":"133",
			"primitives":[
				{
					"attributes":{
						"POSITION":21,
						"NORMAL":22
					},
					"indices":5
				}
			]
		},
		{
			"name":"113",
			"primitives":[
				{
					"attributes":{
						"POSITION":23,
						"NORMAL":24
					},
					"indices":25
				}
			]
		},
		{
			"name":"123",
			"primitives":[
				{
					"attributes":{
						"POSITION":26,
						"NORMAL":27
					},
					"indices":28
				}
			]
		},
		{
			"name":"118",
			"primitives":[
				{
					"attributes":{
						"POSITION":29,
						"NORMAL":30
					},
					"indices":5
				}
			]
		},
		{
			"name":"124",
			"primitives":[
				{
					"attributes":{
						"POSITION":31,
						"NORMAL":32
					},
					"indices":5
				}
			]
		},
		{
			"name":"119",
			"primitives":[
				{
					"attributes":{
						"POSITION":33,
						"NORMAL":34
					},
					"indices":5
				}
			]
		},
		{
			"name":"121",
			"primitives":[
				{
					"attributes":{
						"POSITION":35,
						"NORMAL":36
					},
					"indices":8
				}
			]
		},
		{
			"name":"116",
			"primitives":[
				{
					"attributes":{
						"POSITION":37,
						"NORMAL":38
					},
					"indices":17
				}
			]
		},
		{
			"name":"122",
			"primitives":[
				{
					"attributes":{
						"POSITION":39,
						"NORMAL":40
					},
					"indices":5
				}
			]
		},
		{
			"name":"117",
			"primitives":[
				{
					"attributes":{
						"POSITION":41,
						"NORMAL":42
					},
					"indices":8
				}
			]
		},
		{
			"name":"127",
			"primitives":[
				{
					"attributes":{
						"POSITION":43,
						"NORMAL":44
					},
					"indices":45
				}
			]
		},
		{
			"name":"128",
			"primitives":[
				{
					"attributes":{
						"POSITION":46,
						"NORMAL":47
					},
					"indices":5
				}
			]
		},
		{
			"name":"125",
			"primitives":[
				{
					"attributes":{
						"POSITION":48,
						"NORMAL":49
					},
					"indices":8
				}
			]
		},
		{
			"name":"126",
			"primitives":[
				{
					"attributes":{
						"POSITION":50,
						"NORMAL":51
					},
					"indices":5
				}
			]
		}
	],
	"accessors":[
		{
			"bufferView":0,
			"componentType":5126,
			"count":1608,
			"max":[
				29.063814163208008,
				3.200000047683716,
				25.99859619140625
			],
			"min":[
				-22.99032211303711,
				0,
				-20.475997924804688
			],
			"type":"VEC3"
		},
		{
			"bufferView":1,
			"componentType":5126,
			"count":1608,
			"type":"VEC3"
		},
		{
			"bufferView":2,
			"componentType":5123,
			"count":3888,
			"type":"SCALAR"
		},
		{
			"bufferView":3,
			"componentType":5126,
			"count":4,
			"max":[
				7.444433212280273,
				0.20010000467300415,
				7.759696960449219
			],
			"min":[
				-7.444435119628906,
				0.20010000467300415,
				-7.759696960449219
			],
			"type":"VEC3"
		},
		{
			"bufferView":4,
			"componentType":5126,
			"count":4,
			"type":"VEC3"
		},
		{
			"bufferView":5,
			"componentType":5123,
			"count":6,
			"type":"SCALAR"
		},
		{
			"bufferView":6,
			"componentType":5126,
			"count":4,
			"max":[
				2.934457778930664,
				0.20010000467300415,
				2.894430160522461
			],
			"min":[
				-2.934457778930664,
				0.20010000467300415,
				-2.8944311141967773
			],
			"type":"VEC3"
		},
		{
			"bufferView":7,
			"componentType":5126,
			"count":4,
			"type":"VEC3"
		},
		{
			"bufferView":8,
			"componentType":5123,
			"count":6,
			"type":"SCALAR"
		},
		{
			"bufferView":9,
			"componentType":5126,
			"count":4,
			"max":[
				15.43229866027832,
				0.20010000467300415,
				14.348506927490234
			],
			"min":[
				-15.43229866027832,
				0.20010000467300415,
				-14.348506927490234
			],
			"type":"VEC3"
		},
		{
			"bufferView":10,
			"componentType":5126,
			"count":4,
			"type":"VEC3"
		},
		{
			"bufferView":11,
			"componentType":5126,
			"count":4,
			"max":[
				4.579596519470215,
				0.20010000467300415,
				4.259271621704102
			],
			"min":[
				-4.579596519470215,
				0.20010000467300415,
				-4.259272575378418
			],
			"type":"VEC3"
		},
		{
			"bufferView":12,
			"componentType":5126,
			"count":4,
			"type":"VEC3"
		},
		{
			"bufferView":13,
			"componentType":5126,
			"count":4,
			"max":[
				0.8395252227783203,
				0.20010000467300415,
				0.8759899139404297
			],
			"min":[
				-0.8395252227783203,
				0.20010000467300415,
				-0.8759908676147461
			],
			"type":"VEC3"
		},
		{
			"bufferView":14,
			"componentType":5126,
			"count":4,
			"type":"VEC3"
		},
		{
			"bufferView":15,
			"componentType":5126,
			"count":12,
			"max":[
				1.730682373046875,
				0.20010000467300415,
				1.7251243591308594
			],
			"min":[
				-1.7306814193725586,
				0.20010000467300415,
				-1.725123405456543
			],
			"type":"VEC3"
		},
		{
			"bufferView":16,
			"componentType":5126,
			"count":12,
			"type":"VEC3"
		},
		{
			"bufferView":17,
			"componentType":5123,
			"count":30,
			"type":"SCALAR"
		},
		{
			"bufferView":18,
			"componentType":5126,
			"count":6,
			"max":[
				3.368720054626465,
				0.20010000467300415,
				4.310456275939941
			],
			"min":[
				-3.3687210083007812,
				0.20010000467300415,
				-4.310456275939941
			],
			"type":"VEC3"
		},
		{
			"bufferView":19,
			"componentType":5126,
			"count":6,
			"type":"VEC3"
		},
		{
			"bufferView":20,
			"componentType":5123,
			"count":12,
			"type":"SCALAR"
		},
		{
			"bufferView":21,
			"componentType":5126,
			"count":4,
			"max":[
				1.1368160247802734,
				0.20010000467300415,
				1.2324647903442383
			],
			"min":[
				-1.1368160247802734,
				0.20010000467300415,
				-1.2324638366699219
			],
			"type":"VEC3"
		},
		{
			"bufferView":22,
			"componentType":5126,
			"count":4,
			"type":"VEC3"
		},
		{
			"bufferView":23,
			"componentType":5126,
			"count":16,
			"max":[
				5.838366508483887,
				0.20010000467300415,
				5.082585334777832
			],
			"min":[
				-5.838366508483887,
				0.20010000467300415,
				-5.082584857940674
			],
			"type":"VEC3"
		},
		{
			"bufferView":24,
			"componentType":5126,
			"count":16,
			"type":"VEC3"
		},
		{
			"bufferView":25,
			"componentType":5123,
			"count":42,
			"type":"SCALAR"
		},
		{
			"bufferView":26,
			"componentType":5126,
			"count":6,
			"max":[
				3.21893310546875,
				0.20010000467300415,
				3.1779184341430664
			],
			"min":[
				-3.21893310546875,
				0.20010000467300415,
				-3.1779189109802246
			],
			"type":"VEC3"
		},
		{
			"bufferView":27,
			"componentType":5126,
			"count":6,
			"type":"VEC3"
		},
		{
			"bufferView":28,
			"componentType":5123,
			"count":12,
			"type":"SCALAR"
		},
		{
			"bufferView":29,
			"componentType":5126,
			"count":4,
			"max":[
				0.5054702758789062,
				0.20010000467300415,
				0.4754343032836914
			],
			"min":[
				-0.5054712295532227,
				0.20010000467300415,
				-0.475433349609375
			],
			"type":"VEC3"
		},
		{
			"bufferView":30,
			"componentType":5126,
			"count":4,
			"type":"VEC3"
		},
		{
			"bufferView":31,
			"componentType":5126,
			"count":4,
			"max":[
				1.5160331726074219,
				0.20010000467300415,
				1.4372072219848633
			],
			"min":[
				-1.5160341262817383,
				0.20010000467300415,
				-1.4372081756591797
			],
			"type":"VEC3"
		},
		{
			"bufferView":32,
			"componentType":5126,
			"count":4,
			"type":"VEC3"
		},
		{
			"bufferView":33,
			"componentType":5126,
			"count":4,
			"max":[
				1.162337303161621,
				0.20010000467300415,
				1.0386667251586914
			],
			"min":[
				-1.162337303161621,
				0.20010000467300415,
				-1.0386667251586914
			],
			"type":"VEC3"
		},
		{
			"bufferView":34,
			"componentType":5126,
			"count":4,
			"type":"VEC3"
		},
		{
			"bufferView":35,
			"componentType":5126,
			"count":4,
			"max":[
				1.4713544845581055,
				0.20010000467300415,
				1.5448336601257324
			],
			"min":[
				-1.4713540077209473,
				0.20010000467300415,
				-1.5448341369628906
			],
			"type":"VEC3"
		},
		{
			"bufferView":36,
			"componentType":5126,
			"count":4,
			"type":"VEC3"
		},
		{
			"bufferView":37,
			"componentType":5126,
			"count":12,
			"max":[
				1.4481639862060547,
				0.20010000467300415,
				1.4907522201538086
			],
			"min":[
				-1.4481630325317383,
				0.20010000467300415,
				-1.4907522201538086
			],
			"type":"VEC3"
		},
		{
			"bufferView":38,
			"componentType":5126,
			"count":12,
			"type":"VEC3"
		},
		{
			"bufferView":39,
			"componentType":5126,
			"count":4,
			"max":[
				1.1099090576171875,
				0.20010000467300415,
				1.21014404296875
			],
			"min":[
				-1.1099090576171875,
				0.20010000467300415,
				-1.21014404296875
			],
			"type":"VEC3"
		},
		{
			"bufferView":40,
			"componentType":5126,
			"count":4,
			"type":"VEC3"
		},
		{
			"bufferView":41,
			"componentType":5126,
			"count":4,
			"max":[
				1.4333906173706055,
				0.20010000467300415,
				1.3686504364013672
			],
			"min":[
				-1.4333915710449219,
				0.20010000467300415,
				-1.3686494827270508
			],
			"type":"VEC3"
		},
		{
			"bufferView":42,
			"componentType":5126,
			"count":4,
			"type":"VEC3"
		},
		{
			"bufferView":43,
			"componentType":5126,
			"count":6,
			"max":[
				3.0901012420654297,
				0.20010000467300415,
				3.0749340057373047
			],
			"min":[
				-3.090099334716797,
				0.20010000467300415,
				-3.0749340057373047
			],
			"type":"VEC3"
		},
		{
			"bufferView":44,
			"componentType":5126,
			"count":6,
			"type":"VEC3"
		},
		{
			"bufferView":45,
			"componentType":5123,
			"count":12,
			"type":"SCALAR"
		},
		{
			"bufferView":46,
			"componentType":5126,
			"count":4,
			"max":[
				2.545133590698242,
				0.20010000467300415,
				2.5366086959838867
			],
			"min":[
				-2.545133590698242,
				0.20010000467300415,
				-2.5366086959838867
			],
			"type":"VEC3"
		},
		{
			"bufferView":47,
			"componentType":5126,
			"count":4,
			"type":"VEC3"
		},
		{
			"bufferView":48,
			"componentType":5126,
			"count":4,
			"max":[
				2.1297616958618164,
				0.20010000467300415,
				1.9451665878295898
			],
			"min":[
				-2.1297616958618164,
				0.20010000467300415,
				-1.9451661109924316
			],
			"type":"VEC3"
		},
		{
			"bufferView":49,
			"componentType":5126,
			"count":4,
			"type":"VEC3"
		},
		{
			"bufferView":50,
			"componentType":5126,
			"count":4,
			"max":[
				2.54512882232666,
				0.20010000467300415,
				2.536604881286621
			],
			"min":[
				-2.5451297760009766,
				0.20010000467300415,
				-2.5366058349609375
			],
			"type":"VEC3"
		},
		{
			"bufferView":51,
			"componentType":5126,
			"count":4,
			"type":"VEC3"
		}
	],
	"bufferViews":[
		{
			"buffer":0,
			"byteLength":19296,
			"byteOffset":0,
			"target":34962
		},
		{
			"buffer":0,
			"byteLength":19296,
			"byteOffset":19296,
			"target":34962
		},
		{
			"buffer":0,
			"byteLength":7776,
			"byteOffset":38592,
			"target":34963
		},
		{
			"buffer":0,
			"byteLength":48,
			"byteOffset":46368,
			"target":34962
		},
		{
			"buffer":0,
			"byteLength":48,
			"byteOffset":46416,
			"target":34962
		},
		{
			"buffer":0,
			"byteLength":12,
			"byteOffset":46464,
			"target":34963
		},
		{
			"buffer":0,
			"byteLength":48,
			"byteOffset":46476,
			"target":34962
		},
		{
			"buffer":0,
			"byteLength":48,
			"byteOffset":46524,
			"target":34962
		},
		{
			"buffer":0,
			"byteLength":12,
			"byteOffset":46572,
			"target":34963
		},
		{
			"buffer":0,
			"byteLength":48,
			"byteOffset":46584,
			"target":34962
		},
		{
			"buffer":0,
			"byteLength":48,
			"byteOffset":46632,
			"target":34962
		},
		{
			"buffer":0,
			"byteLength":48,
			"byteOffset":46680,
			"target":34962
		},
		{
			"buffer":0,
			"byteLength":48,
			"byteOffset":46728,
			"target":34962
		},
		{
			"buffer":0,
			"byteLength":48,
			"byteOffset":46776,
			"target":34962
		},
		{
			"buffer":0,
			"byteLength":48,
			"byteOffset":46824,
			"target":34962
		},
		{
			"buffer":0,
			"byteLength":144,
			"byteOffset":46872,
			"target":34962
		},
		{
			"buffer":0,
			"byteLength":144,
			"byteOffset":47016,
			"target":34962
		},
		{
			"buffer":0,
			"byteLength":60,
			"byteOffset":47160,
			"target":34963
		},
		{
			"buffer":0,
			"byteLength":72,
			"byteOffset":47220,
			"target":34962
		},
		{
			"buffer":0,
			"byteLength":72,
			"byteOffset":47292,
			"target":34962
		},
		{
			"buffer":0,
			"byteLength":24,
			"byteOffset":47364,
			"target":34963
		},
		{
			"buffer":0,
			"byteLength":48,
			"byteOffset":47388,
			"target":34962
		},
		{
			"buffer":0,
			"byteLength":48,
			"byteOffset":47436,
			"target":34962
		},
		{
			"buffer":0,
			"byteLength":192,
			"byteOffset":47484,
			"target":34962
		},
		{
			"buffer":0,
			"byteLength":192,
			"byteOffset":47676,
			"target":34962
		},
		{
			"buffer":0,
			"byteLength":84,
			"byteOffset":47868,
			"target":34963
		},
		{
			"buffer":0,
			"byteLength":72,
			"byteOffset":47952,
			"target":34962
		},
		{
			"buffer":0,
			"byteLength":72,
			"byteOffset":48024,
			"target":34962
		},
		{
			"buffer":0,
			"byteLength":24,
			"byteOffset":48096,
			"target":34963
		},
		{
			"buffer":0,
			"byteLength":48,
			"byteOffset":48120,
			"target":34962
		},
		{
			"buffer":0,
			"byteLength":48,
			"byteOffset":48168,
			"target":34962
		},
		{
			"buffer":0,
			"byteLength":48,
			"byteOffset":48216,
			"target":34962
		},
		{
			"buffer":0,
			"byteLength":48,
			"byteOffset":48264,
			"target":34962
		},
		{
			"buffer":0,
			"byteLength":48,
			"byteOffset":48312,
			"target":34962
		},
		{
			"buffer":0,
			"byteLength":48,
			"byteOffset":48360,
			"target":34962
		},
		{
			"buffer":0,
			"byteLength":48,
			"byteOffset":48408,
			"target":34962
		},
		{
			"buffer":0,
			"byteLength":48,
			"byteOffset":48456,
			"target":34962
		},
		{
			"buffer":0,
			"byteLength":144,
			"byteOffset":48504,
			"target":34962
		},
		{
			"buffer":0,
			"byteLength":144,
			"byteOffset":48648,
			"target":34962
		},
		{
			"buffer":0,
			"byteLength":48,
			"byteOffset":48792,
			"target":34962
		},
		{
			"buffer":0,
			"byteLength":48,
			"byteOffset":48840,
			"target":34962
		},
		{
			"buffer":0,
			"byteLength":48,
			"byteOffset":48888,
			"target":34962
		},
		{
			"buffer":0,
			"byteLength":48,
			"byteOffset":48936,
			"target":34962
		},
		{
			"buffer":0,
			"byteLength":72,
			"byteOffset":48984,
			"target":34962
		},
		{
			"buffer":0,
			"byteLength":72,
			"byteOffset":49056,
			"target":34962
		},
		{
			"buffer":0,
			"byteLength":24,
			"byteOffset":49128,
			"target":34963
		},
		{
			"buffer":0,
			"byteLength":48,
			"byteOffset":49152,
			"target":34962
		},
		{
			"buffer":0,
			"byteLength":48,
			"byteOffset":49200,
			"target":34962
		},
		{
			"buffer":0,
			"byteLength":48,
			"byteOffset":49248,
			"target":34962
		},
		{
			"buffer":0,
			"byteLength":48,
			"byteOffset":49296,
			"target":34962
		},
		{
			"buffer":0,
			"byteLength":48,
			"byteOffset":49344,
			"target":34962
		},
		{
			"buffer":0,
			"byteLength":48,
			"byteOffset":49392,
			"target":34962
		}
	],
	"buffers":[
		{
			"byteLength":49440,
			"uri":"data:application/octet-stream;base64,"
		}
	]
}
