{
	"asset":{
		"generator":"Khronos glTF Blender I/O v3.6.27",
		"version":"2.0"
	},
	"scene":0,
	"scenes":[
		{
			"extras":{
				"_RNA_UI":{
					"SRID":{
						"description":"Map Coordinate Reference System",
						"default":""
					},
					"crs x":{
						"description":"Scene x origin in CRS space",
						"default":0.0
					},
					"crs y":{
						"description":"Scene y origin in CRS space",
						"default":0.0
					},
					"longitude":{
						"description":"Scene origin longitude",
						"default":0.0,
						"min":-180.0,
						"max":180.0
					},
					"latitude":{
						"description":"Scene origin latitude",
						"default":0.0,
						"min":-90.0,
						"max":90.0
					}
				},
				"SRID":"EPSG:25832",
				"crs x":355043.3351730326,
				"crs y":5643739.666081983,
				"longitude":6.937336724035933,
				"latitude":50.9270588184624
			},
			"name":"Scene",
			"nodes":[
				0,
				1,
				2
			]
		}
	],
	"nodes":[
		{
			"mesh":0,
			"name":"303__4__outline",
			"translation":[
				9.64795970916748,
				12.800000190734863,
				7.49061918258667
			]
		},
		{
			"mesh":1,
			"name":"303__3__roof",
			"translation":[
				-0.9680137634277344,
				12.800000190734863,
				0.35964417457580566
			]
		},
		{
			"extras":{
				"id":134.0
			},
			"mesh":2,
			"name":"134",
			"translation":[
				10.200576782226562,
				12.800000190734863,
				11.068645477294922
			]
		}
	],
	"meshes":[
		{
			"name":"303__4__outline",
			"primitives":[
				{
					"attributes":{
						"POSITION":0,
						"NORMAL":1
					},
					"indices":2
				}
			]
		},
		{
			"name":"303__0__outline.016",
			"primitives":[
				{
					"attributes":{
						"POSITION":3,
						"NORMAL":4
					},
					"indices":5
				}
			]
		},
		{
			"name":"134",
			"primitives":[
				{
					"attributes":{
						"POSITION":6,
						"NORMAL":7
					},
					"indices":8
				}
			]
		}
	],
	"accessors":[
		{
			"bufferView":0,
			"componentType":5126,
			"count":152,
			"max":[
				11.648957252502441,
				3.200000047683716,
				13.035982131958008
			],
			"min":[
				-7.556474685668945,
				0,
				-6.085119247436523
			],
			"type":"VEC3"
		},
		{
			"bufferView":1,
			"componentType":5126,
			"count":152,
			"type":"VEC3"
		},
		{
			"bufferView":2,
			"componentType":5123,
			"count":324,
			"type":"SCALAR"
		},
		{
			"bufferView":3,
			"componentType":5126,
			"count":340,
			"max":[
				29.063814163208008,
				0.20000000298023224,
				25.99859619140625
			],
			"min":[
				-22.99032211303711,
				0,
				-20.475997924804688
			],
			"type":"VEC3"
		},
		{
			"bufferView":4,
			"componentType":5126,
			"count":340,
			"type":"VEC3"
		},
		{
			"bufferView":5,
			"componentType":5123,
			"count":708,
			"type":"SCALAR"
		},
		{
			"bufferView":6,
			"componentType":5126,
			"count":6,
			"max":[
				7.792600631713867,
				0.20010000467300415,
				9.163688659667969
			],
			"min":[
				-7.792601585388184,
				0.20010000467300415,
				-9.163688659667969
			],
			"type":"VEC3"
		},
		{
			"bufferView":7,
			"componentType":5126,
			"count":6,
			"type":"VEC3"
		},
		{
			"bufferView":8,
			"componentType":5123,
			"count":12,
			"type":"SCALAR"
		}
	],
	"bufferViews":[
		{
			"buffer":0,
			"byteLength":1824,
			"byteOffset":0,
			"target":34962
		},
		{
			"buffer":0,
			"byteLength":1824,
			"byteOffset":1824,
			"target":34962
		},
		{
			"buffer":0,
			"byteLength":648,
			"byteOffset":3648,
			"target":34963
		},
		{
			"buffer":0,
			"byteLength":4080,
			"byteOffset":4296,
			"target":34962
		},
		{
			"buffer":0,
			"byteLength":4080,
			"byteOffset":8376,
			"target":34962
		},
		{
			"buffer":0,
			"byteLength":1416,
			"byteOffset":12456,
			"target":34963
		},
		{
			"buffer":0,
			"byteLength":72,
			"byteOffset":13872,
			"target":34962
		},
		{
			"buffer":0,
			"byteLength":72,
			"byteOffset":13944,
			"target":34962
		},
		{
			"buffer":0,
			"byteLength":24,
			"byteOffset":14016,
			"target":34963
		}
	],
	"buffers":[
		{
			"byteLength":14040,
			"uri":"data:application/octet-stream;base64,"
		}
	]
}
